<svg xmlns="http://www.w3.org/2000/svg" data-name="Layer 1" viewBox="0 0 100 125" x="0px" y="0px">
    <defs><style>.cls-1{fill-rule:evenodd;}</style></defs>
    <path class="cls-1" fill="#dcba9e" d="M50.565,78.107,77.376,93.951a1.111,1.111,0,0,0,1.648-1.2l-6.9-30.3a1.088,1.088,0,0,1,.349-1.08l23.473-20.69a1.111,1.111,0,0,0-.638-1.94l-31.061-2.71a1.09,1.09,0,0,1-.925-.67l-12.3-28.8a1.11,1.11,0,0,0-2.042,0l-12.3,28.8a1.09,1.09,0,0,1-.925.67L4.694,38.741a1.111,1.111,0,0,0-.638,1.94l23.473,20.69a1.088,1.088,0,0,1,.349,1.08l-6.9,30.3a1.111,1.111,0,0,0,1.648,1.2L49.435,78.107A1.088,1.088,0,0,1,50.565,78.107Z"/>
</svg>